<svg xmlns="http://www.w3.org/2000/svg" width="26" height="26" viewBox="0 0 26 26" fill="none">
  <path d="M8.45459 12.6819L8.45459 8.45461C8.45459 6.11994 10.3472 4.22732 12.6819 4.22732V4.22732C15.0165 4.22732 16.9092 6.11994 16.9092 8.4546L16.9092 12.6819" stroke="white" stroke-width="2.19112" stroke-linecap="round"/>
  <path d="M3.89237 13.5297C4.05131 11.6224 4.13078 10.6688 4.75972 10.0901C5.38867 9.51135 6.3456 9.51135 8.25947 9.51135H17.1041C19.018 9.51135 19.9749 9.51135 20.6039 10.0901C21.2328 10.6688 21.3123 11.6224 21.4712 13.5297L22.0024 19.904C22.0917 20.9752 22.1363 21.5107 21.8223 21.852C21.5083 22.1932 20.9709 22.1932 19.8961 22.1932H5.46751C4.39267 22.1932 3.85525 22.1932 3.54127 21.852C3.22728 21.5107 3.27191 20.9752 3.36117 19.904L3.89237 13.5297Z" stroke="white" stroke-width="2.19112"/>
</svg>